<svg viewBox="0 0 900 500" xmlns="http://www.w3.org/2000/svg" font-family="'Courier New', monospace">
  <defs>
    <marker id="arrow-green" markerWidth="8" markerHeight="8" refX="6" refY="3" orient="auto">
      <path d="M0,0 L0,6 L8,3 z" fill="#3fb950"/>
    </marker>
    <marker id="arrow-blue" markerWidth="8" markerHeight="8" refX="6" refY="3" orient="auto">
      <path d="M0,0 L0,6 L8,3 z" fill="#58a6ff"/>
    </marker>
    <marker id="arrow-orange" markerWidth="8" markerHeight="8" refX="6" refY="3" orient="auto">
      <path d="M0,0 L0,6 L8,3 z" fill="#f0883e"/>
    </marker>
    <marker id="arrow-purple" markerWidth="8" markerHeight="8" refX="6" refY="3" orient="auto">
      <path d="M0,0 L0,6 L8,3 z" fill="#bc8cff"/>
    </marker>
    <marker id="arrow-red" markerWidth="8" markerHeight="8" refX="6" refY="3" orient="auto">
      <path d="M0,0 L0,6 L8,3 z" fill="#ff7b72"/>
    </marker>
    <marker id="arrow-yellow" markerWidth="8" markerHeight="8" refX="6" refY="3" orient="auto">
      <path d="M0,0 L0,6 L8,3 z" fill="#e3b341"/>
    </marker>
  </defs>

  <!-- Background -->
  <rect width="900" height="500" fill="#2d333b" rx="12"/>

  <!-- Subtle grid -->
  <pattern id="grid" width="24" height="24" patternUnits="userSpaceOnUse">
    <circle cx="1" cy="1" r="0.8" fill="#ffffff08"/>
  </pattern>
  <rect width="900" height="500" fill="url(#grid)" rx="12"/>

  <!-- Title -->
  <text x="450" y="36" text-anchor="middle" font-size="12" fill="#768390" letter-spacing="4">HOMELAB ARCHITECTURE</text>
  <line x1="180" y1="44" x2="720" y2="44" stroke="#444c56" stroke-width="0.5"/>

  <!-- Server boundary -->
  <rect x="190" y="60" width="540" height="390" rx="8" fill="#22272e" stroke="#444c56" stroke-width="1" stroke-dasharray="6,4"/>
  <text x="460" y="78" text-anchor="middle" font-size="9" fill="#768390" letter-spacing="3">UBUNTU 24.04 SERVER</text>

  <!-- ===== ATTACKER ===== -->
  <rect x="24" y="200" width="120" height="56" rx="6" fill="#2d1f1f" stroke="#ff7b72" stroke-width="1.5"/>
  <text x="84" y="222" text-anchor="middle" font-size="10" fill="#ff7b72" font-weight="500" letter-spacing="1">ATTACKER</text>
  <text x="84" y="240" text-anchor="middle" font-size="9" fill="#e05c55">external threat</text>

  <!-- ===== COWRIE ===== -->
  <rect x="214" y="170" width="140" height="64" rx="6" fill="#1f2d22" stroke="#3fb950" stroke-width="1.5"/>
  <text x="284" y="194" text-anchor="middle" font-size="11" fill="#3fb950" font-weight="500" letter-spacing="1">COWRIE</text>
  <text x="284" y="210" text-anchor="middle" font-size="9" fill="#2ea043">SSH Honeypot</text>
  <text x="284" y="224" text-anchor="middle" font-size="9" fill="#4a8f57">port :2222</text>

  <!-- ===== WAZUH AGENT ===== -->
  <rect x="384" y="150" width="148" height="64" rx="6" fill="#1c2638" stroke="#58a6ff" stroke-width="1.5"/>
  <text x="458" y="174" text-anchor="middle" font-size="11" fill="#58a6ff" font-weight="500" letter-spacing="1">WAZUH AGENT</text>
  <text x="458" y="190" text-anchor="middle" font-size="9" fill="#4493e0">host monitoring</text>
  <text x="458" y="206" text-anchor="middle" font-size="9" fill="#3a7abf">auth.log · syslog</text>

  <!-- ===== WAZUH MANAGER ===== -->
  <rect x="374" y="280" width="168" height="72" rx="6" fill="#172031" stroke="#58a6ff" stroke-width="2"/>
  <text x="458" y="306" text-anchor="middle" font-size="11" fill="#79c0ff" font-weight="500" letter-spacing="1">WAZUH SIEM</text>
  <text x="458" y="322" text-anchor="middle" font-size="9" fill="#58a6ff">alerts · MITRE ATT&amp;CK</text>
  <text x="458" y="338" text-anchor="middle" font-size="9" fill="#3a7abf">dashboard :443</text>

  <!-- ===== GRAFANA ===== -->
  <rect x="568" y="150" width="136" height="64" rx="6" fill="#2d2318" stroke="#f0883e" stroke-width="1.5"/>
  <text x="636" y="174" text-anchor="middle" font-size="11" fill="#f0883e" font-weight="500" letter-spacing="1">GRAFANA</text>
  <text x="636" y="190" text-anchor="middle" font-size="9" fill="#d4763a">metrics dashboard</text>
  <text x="636" y="206" text-anchor="middle" font-size="9" fill="#a85e2a">port :3000</text>

  <!-- ===== PROMETHEUS ===== -->
  <rect x="568" y="280" width="136" height="72" rx="6" fill="#271f16" stroke="#f0883e" stroke-width="1"/>
  <text x="636" y="306" text-anchor="middle" font-size="11" fill="#f0883e" font-weight="500" letter-spacing="1">PROMETHEUS</text>
  <text x="636" y="322" text-anchor="middle" font-size="9" fill="#d4763a">node exporter</text>
  <text x="636" y="338" text-anchor="middle" font-size="9" fill="#a85e2a">port :9090</text>

  <!-- ===== UPTIME KUMA ===== -->
  <rect x="224" y="390" width="136" height="52" rx="6" fill="#272214" stroke="#e3b341" stroke-width="1.5"/>
  <text x="292" y="412" text-anchor="middle" font-size="11" fill="#e3b341" font-weight="500" letter-spacing="1">UPTIME KUMA</text>
  <text x="292" y="428" text-anchor="middle" font-size="9" fill="#b8922f">port :3001</text>

  <!-- ===== PORTAINER ===== -->
  <rect x="390" y="400" width="136" height="52" rx="6" fill="#1c2638" stroke="#58a6ff" stroke-width="1"/>
  <text x="458" y="422" text-anchor="middle" font-size="11" fill="#58a6ff" font-weight="500" letter-spacing="1">PORTAINER</text>
  <text x="458" y="438" text-anchor="middle" font-size="9" fill="#3a7abf">port :9443</text>

  <!-- ===== TAILSCALE ===== -->
  <rect x="756" y="260" width="120" height="56" rx="6" fill="#251f30" stroke="#bc8cff" stroke-width="1.5"/>
  <text x="816" y="284" text-anchor="middle" font-size="11" fill="#bc8cff" font-weight="500" letter-spacing="1">TAILSCALE</text>
  <text x="816" y="300" text-anchor="middle" font-size="9" fill="#9460d4">remote access</text>

  <!-- Remote user -->
  <rect x="770" y="160" width="92" height="48" rx="6" fill="#2d333b" stroke="#444c56" stroke-width="1"/>
  <text x="816" y="180" text-anchor="middle" font-size="10" fill="#adbac7" font-weight="500">YOU</text>
  <text x="816" y="198" text-anchor="middle" font-size="8" fill="#768390">anywhere</text>

  <!-- ===== ARROWS ===== -->
  <line x1="144" y1="228" x2="212" y2="210" stroke="#ff7b72" stroke-width="1.5" marker-end="url(#arrow-red)"/>
  <text x="150" y="212" font-size="8" fill="#ff7b72">attack</text>

  <line x1="354" y1="200" x2="382" y2="190" stroke="#3fb950" stroke-width="1.5" marker-end="url(#arrow-blue)"/>
  <text x="348" y="188" font-size="8" fill="#3fb950">logs</text>

  <line x1="458" y1="214" x2="458" y2="278" stroke="#58a6ff" stroke-width="1.5" marker-end="url(#arrow-blue)"/>
  <text x="464" y="250" font-size="8" fill="#58a6ff">events</text>

  <line x1="636" y1="278" x2="636" y2="216" stroke="#f0883e" stroke-width="1.5" marker-end="url(#arrow-orange)"/>
  <text x="642" y="252" font-size="8" fill="#f0883e">metrics</text>

  <line x1="816" y1="208" x2="816" y2="258" stroke="#bc8cff" stroke-width="1.5" marker-end="url(#arrow-purple)"/>
  <line x1="756" y1="288" x2="732" y2="320" stroke="#bc8cff" stroke-width="1.5" stroke-dasharray="5,3" marker-end="url(#arrow-purple)"/>
  <line x1="420" y1="352" x2="340" y2="392" stroke="#e3b341" stroke-width="1" stroke-dasharray="4,3"/>

  <!-- Legend -->
  <rect x="24" y="390" width="148" height="96" rx="6" fill="#22272e" stroke="#444c56" stroke-width="1"/>
  <text x="38" y="408" font-size="9" fill="#768390" letter-spacing="2">LEGEND</text>
  <line x1="38" y1="422" x2="60" y2="422" stroke="#ff7b72" stroke-width="1.5"/>
  <text x="66" y="426" font-size="8" fill="#adbac7">attack traffic</text>
  <line x1="38" y1="438" x2="60" y2="438" stroke="#3fb950" stroke-width="1.5"/>
  <text x="66" y="442" font-size="8" fill="#adbac7">honeypot logs</text>
  <line x1="38" y1="454" x2="60" y2="454" stroke="#58a6ff" stroke-width="1.5"/>
  <text x="66" y="458" font-size="8" fill="#adbac7">security events</text>
  <line x1="38" y1="470" x2="60" y2="470" stroke="#bc8cff" stroke-width="1.5" stroke-dasharray="4,2"/>
  <text x="66" y="474" font-size="8" fill="#adbac7">VPN tunnel</text>
</svg>
